<?xml version="1.0" encoding="UTF-8" standalone="no"?><!DOCTYPE svg PUBLIC "-//W3C//DTD SVG 1.1//EN" "http://www.w3.org/Graphics/SVG/1.1/DTD/svg11.dtd"><svg width="100%" height="100%" viewBox="0 0 3842 3505" version="1.1" xmlns="http://www.w3.org/2000/svg" xmlns:xlink="http://www.w3.org/1999/xlink" xml:space="preserve" xmlns:serif="http://www.serif.com/" style="fill-rule:evenodd;clip-rule:evenodd;stroke-linejoin:round;stroke-miterlimit:2;"><path d="M3611.111,3472.21l-3385.417,0c-114.583,0 -208.333,-93.75 -208.333,-208.316l0,-3038.195c0,-114.601 93.75,-208.333 208.333,-208.333l3385.417,0c114.583,0 208.333,93.733 208.333,208.333l0,3038.195c0,114.566 -93.75,208.316 -208.333,208.316" style="fill:#fff;fill-rule:nonzero;"/><path d="M2520.34,2520.192c0,35.383 2.527,85.93 5.055,151.642c0,68.239 5.055,136.478 10.109,209.771c7.582,73.293 15.164,141.532 27.801,209.771c12.637,68.239 27.801,123.841 48.02,161.751c2.527,5.055 7.582,10.109 12.637,17.692c7.582,7.582 2.527,20.219 -12.637,37.91c-2.527,2.527 -7.582,5.055 -17.692,7.582c-12.637,2.527 -25.274,2.527 -37.91,0c-12.637,-2.527 -27.801,-10.109 -37.91,-20.219c-12.637,-10.109 -22.746,-27.801 -27.801,-53.075c-7.582,-30.328 -12.637,-75.821 -20.219,-136.478c-7.582,-60.657 -12.637,-121.313 -17.692,-181.97c-7.582,-63.184 -12.637,-116.259 -15.164,-164.278c-2.527,-45.493 -5.055,-68.239 -5.055,-70.766c-7.582,-98.567 -10.109,-176.915 -12.637,-235.045c-2.527,-58.129 -2.527,-106.149 -5.055,-139.005c-2.527,-32.856 -5.055,-58.129 -7.582,-75.821c-5.055,-15.164 -12.637,-27.801 -25.274,-40.438c-12.637,-12.637 -27.801,-25.274 -48.02,-37.91c-20.219,-12.637 -48.02,-35.383 -83.403,-65.711c-25.274,-22.746 -27.801,-48.02 -7.582,-75.821c37.91,-48.02 65.711,-85.93 88.458,-113.731c22.746,-27.801 37.91,-48.02 50.547,-65.711c10.109,-17.692 17.692,-30.328 22.746,-42.965c2.527,-10.109 5.055,-22.746 5.055,-40.438c7.582,-189.552 17.692,-371.522 32.856,-545.91c15.164,-171.861 30.328,-326.03 48.02,-462.507c15.164,-136.478 27.801,-250.209 40.438,-343.721c12.637,-90.985 20.219,-151.642 20.219,-181.97c2.527,-27.801 10.109,-45.493 25.274,-58.129c15.164,-10.109 32.856,-15.164 48.02,-12.637c20.219,2.527 35.383,10.109 48.02,25.274c12.637,15.164 17.692,35.383 15.164,63.184c-12.637,90.985 -25.274,199.662 -40.438,323.502c-17.692,126.368 -32.856,255.263 -45.493,386.686c-15.164,128.895 -27.801,255.263 -37.91,376.577c-12.637,121.313 -17.692,222.408 -20.219,303.283c90.985,-128.895 171.861,-245.154 245.154,-353.831c73.293,-108.677 144.06,-209.771 217.353,-308.338c70.766,-98.567 144.06,-192.079 222.408,-285.592c78.348,-96.04 166.806,-192.079 267.9,-293.174c17.692,-17.692 35.383,-27.801 58.129,-32.856c25.274,-7.582 42.965,-7.582 58.129,0c15.164,5.055 25.274,15.164 27.801,30.328c2.527,17.692 -10.109,37.91 -35.383,65.711c-78.348,80.876 -156.696,169.333 -240.099,265.373c-83.403,96.04 -166.806,194.607 -245.154,293.174c-78.348,98.567 -154.169,194.607 -227.463,290.647c-70.766,93.512 -133.95,179.443 -187.025,255.263c-53.075,75.821 -96.04,139.005 -126.368,192.079c-32.856,53.075 -48.02,83.403 -48.02,96.04c0,75.821 -2.527,136.478 -5.055,184.497c-2.527,45.493 -2.527,80.876 -2.527,108.677c-2.527,27.801 -2.527,45.493 0,58.129c0,12.637 5.055,20.219 12.637,27.801c55.602,55.602 103.622,103.622 144.06,141.532c40.438,37.91 78.348,73.293 111.204,103.622c32.856,30.328 65.711,58.129 98.567,85.93c30.328,27.801 63.184,55.602 101.094,83.403c35.383,27.801 75.821,60.657 123.841,98.567c45.493,37.91 101.094,80.876 166.806,131.423c10.109,7.582 15.164,15.164 15.164,27.801c0,12.637 -2.527,22.746 -7.582,32.856c-7.582,10.109 -15.164,17.692 -25.274,22.746c-10.109,5.055 -20.219,5.055 -30.328,-2.527c-15.164,-10.109 -37.91,-25.274 -65.711,-45.493c-30.328,-22.746 -65.711,-48.02 -103.622,-78.348c-37.91,-27.801 -80.876,-60.657 -123.841,-98.567c-42.965,-37.91 -85.93,-75.821 -128.895,-118.786c-75.821,-73.293 -133.95,-133.95 -171.861,-176.915c-40.438,-42.965 -68.239,-70.766 -88.458,-80.876c-17.692,-7.582 -25.274,0 -27.801,27.801c-2.527,27.801 -2.527,73.293 -2.527,141.532Zm-113.731,-561.074c-7.582,5.055 -15.164,12.637 -22.746,22.746c-7.582,10.109 -15.164,20.219 -20.219,27.801c-5.055,7.582 -7.582,17.692 -5.055,30.328c2.527,12.637 5.055,25.274 10.109,37.91c5.055,12.637 10.109,22.746 17.692,30.328c7.582,7.582 12.637,12.637 17.692,12.637l2.527,-161.751Z" style="fill-rule:nonzero;"/><path d="M2075.827,355.842c-50.547,0 -113.731,48.02 -187.025,146.587c-73.293,98.567 -149.114,240.099 -222.408,424.597c-73.293,181.97 -141.532,409.433 -202.189,677.333c-63.184,267.9 -106.149,571.184 -128.895,909.85c-5.055,27.801 -12.637,50.547 -22.746,65.711c-10.109,15.164 -20.219,25.274 -32.856,30.328c-12.637,5.055 -22.746,7.582 -35.383,2.527c-15.164,0 -25.274,-5.055 -37.91,-7.582c-20.219,-7.582 -37.91,-35.383 -48.02,-85.93c-15.164,-48.02 -22.746,-113.731 -30.328,-192.079c-7.582,-78.348 -10.109,-169.333 -12.637,-270.428c-2.527,-101.094 -2.527,-207.244 0,-318.448c0,-108.677 2.527,-219.88 5.055,-333.612c2.527,-113.731 2.527,-219.88 5.055,-320.975c2.527,-101.094 2.527,-194.607 5.055,-278.01c0,-83.403 -2.527,-151.642 -5.055,-204.716c-85.93,98.567 -156.696,222.408 -214.826,368.995c-55.602,146.587 -101.094,303.283 -139.005,467.562c-37.91,166.806 -65.711,336.139 -83.403,505.472c-20.219,171.861 -35.383,331.084 -45.493,475.144c-10.109,146.587 -17.692,272.955 -20.219,381.632c-2.527,108.677 -7.582,181.97 -12.637,222.408c-2.527,10.109 -10.109,15.164 -25.274,15.164c-17.692,0 -30.328,2.527 -37.91,5.055c-32.856,12.637 -58.129,0 -80.876,-37.91c-25.274,-40.438 -42.965,-101.094 -58.129,-179.443c-17.692,-78.348 -30.328,-174.388 -37.91,-285.592c-7.582,-113.731 -15.164,-235.045 -17.692,-366.467c-2.527,-128.895 -2.527,-265.373 0,-406.905c0,-139.005 5.055,-278.01 10.109,-417.015c2.527,-139.005 10.109,-270.428 17.692,-396.796c7.582,-126.368 17.692,-240.099 25.274,-341.194c7.582,-103.622 17.692,-189.552 27.801,-260.318c7.582,-68.239 17.692,-116.259 25.274,-139.005c2.527,-10.109 12.637,-15.164 30.328,-17.692c17.692,-2.527 35.383,0 53.075,2.527c17.692,2.527 35.383,7.582 48.02,15.164c15.164,7.582 20.219,15.164 17.692,25.274c-22.746,133.95 -42.965,285.592 -60.657,454.925c-17.692,169.333 -30.328,343.721 -42.965,518.109c-12.637,174.388 -20.219,346.249 -25.274,513.054c-5.055,169.333 -7.582,318.448 -5.055,447.343c2.527,131.423 10.109,237.572 20.219,318.448c10.109,78.348 25.274,118.786 42.965,118.786c12.637,-184.497 27.801,-368.995 45.493,-548.437c15.164,-179.443 40.438,-353.831 73.293,-525.691c32.856,-174.388 80.876,-341.194 141.532,-508c58.129,-164.278 139.005,-323.502 240.099,-480.199c20.219,-32.856 42.965,-53.075 68.239,-63.184c22.746,-10.109 45.493,-12.637 65.711,-10.109c20.219,5.055 37.91,15.164 50.547,25.274c15.164,12.637 22.746,27.801 25.274,42.965c15.164,136.478 22.746,278.01 25.274,427.124c2.527,146.587 0,288.119 -2.527,424.597c-2.527,136.478 -7.582,260.318 -12.637,374.049c-5.055,113.731 -7.582,202.189 -5.055,270.428c2.527,-2.527 10.109,-27.801 22.746,-78.348c10.109,-50.547 25.274,-116.259 42.965,-197.134c17.692,-80.876 40.438,-171.861 65.711,-272.955c27.801,-103.622 58.129,-207.244 93.512,-315.92c32.856,-108.677 70.766,-214.826 111.204,-318.448c42.965,-103.622 88.458,-197.134 139.005,-280.537c48.02,-83.403 101.094,-151.642 159.224,-204.716c58.129,-53.075 118.786,-83.403 181.97,-90.985c30.328,-2.527 58.129,5.055 83.403,22.746c22.746,17.692 37.91,42.965 40.438,73.293c5.055,78.348 7.582,174.388 7.582,288.119c-2.527,116.259 -5.055,242.627 -7.582,381.632c-5.055,139.005 -12.637,283.064 -17.692,434.706c-7.582,154.169 -15.164,305.811 -20.219,454.925c-7.582,151.642 -12.637,298.229 -17.692,437.234c-5.055,141.532 -7.582,270.428 -5.055,386.686c0,113.731 2.527,212.298 10.109,293.174c7.582,80.876 17.692,136.478 32.856,166.806c7.582,12.637 7.582,25.274 0,32.856c-7.582,7.582 -17.692,12.637 -30.328,15.164c-15.164,2.527 -30.328,0 -45.493,-5.055c-17.692,-5.055 -30.328,-15.164 -40.438,-30.328c-20.219,-27.801 -32.856,-93.512 -42.965,-199.662c-5.055,-106.149 -10.109,-237.572 -10.109,-394.268c2.527,-156.696 5.055,-333.612 10.109,-528.219c7.582,-194.607 15.164,-391.741 22.746,-596.457c7.582,-204.716 15.164,-406.905 22.746,-604.039c7.582,-202.189 12.637,-384.159 15.164,-550.965Z" style="fill-rule:nonzero;"/></svg>
