<?xml version="1.0" encoding="UTF-8" standalone="no"?><!DOCTYPE svg PUBLIC "-//W3C//DTD SVG 1.1//EN" "http://www.w3.org/Graphics/SVG/1.1/DTD/svg11.dtd"><svg width="100%" height="100%" viewBox="0 0 11859 4384" version="1.1" xmlns="http://www.w3.org/2000/svg" xmlns:xlink="http://www.w3.org/1999/xlink" xml:space="preserve" xmlns:serif="http://www.serif.com/" style="fill-rule:evenodd;clip-rule:evenodd;stroke-linejoin:round;stroke-miterlimit:2;"><path d="M3611.111,3472.21l-3385.417,0c-114.583,0 -208.333,-93.75 -208.333,-208.316l0,-3038.195c0,-114.601 93.75,-208.333 208.333,-208.333l3385.417,0c114.583,0 208.333,93.733 208.333,208.333l0,3038.195c0,114.566 -93.75,208.316 -208.333,208.316" style="fill-rule:nonzero;"/><path d="M2520.34,2520.192c0,35.383 2.527,85.93 5.055,151.642c0,68.239 5.055,136.478 10.109,209.771c7.582,73.293 15.164,141.532 27.801,209.771c12.637,68.239 27.801,123.841 48.02,161.751c2.527,5.055 7.582,10.109 12.637,17.692c7.582,7.582 2.527,20.219 -12.637,37.91c-2.527,2.527 -7.582,5.055 -17.692,7.582c-12.637,2.527 -25.274,2.527 -37.91,0c-12.637,-2.527 -27.801,-10.109 -37.91,-20.219c-12.637,-10.109 -22.746,-27.801 -27.801,-53.075c-7.582,-30.328 -12.637,-75.821 -20.219,-136.478c-7.582,-60.657 -12.637,-121.313 -17.692,-181.97c-7.582,-63.184 -12.637,-116.259 -15.164,-164.278c-2.527,-45.493 -5.055,-68.239 -5.055,-70.766c-7.582,-98.567 -10.109,-176.915 -12.637,-235.045c-2.527,-58.129 -2.527,-106.149 -5.055,-139.005c-2.527,-32.856 -5.055,-58.129 -7.582,-75.821c-5.055,-15.164 -12.637,-27.801 -25.274,-40.438c-12.637,-12.637 -27.801,-25.274 -48.02,-37.91c-20.219,-12.637 -48.02,-35.383 -83.403,-65.711c-25.274,-22.746 -27.801,-48.02 -7.582,-75.821c37.91,-48.02 65.711,-85.93 88.458,-113.731c22.746,-27.801 37.91,-48.02 50.547,-65.711c10.109,-17.692 17.692,-30.328 22.746,-42.965c2.527,-10.109 5.055,-22.746 5.055,-40.438c7.582,-189.552 17.692,-371.522 32.856,-545.91c15.164,-171.861 30.328,-326.03 48.02,-462.507c15.164,-136.478 27.801,-250.209 40.438,-343.721c12.637,-90.985 20.219,-151.642 20.219,-181.97c2.527,-27.801 10.109,-45.493 25.274,-58.129c15.164,-10.109 32.856,-15.164 48.02,-12.637c20.219,2.527 35.383,10.109 48.02,25.274c12.637,15.164 17.692,35.383 15.164,63.184c-12.637,90.985 -25.274,199.662 -40.438,323.502c-17.692,126.368 -32.856,255.263 -45.493,386.686c-15.164,128.895 -27.801,255.263 -37.91,376.577c-12.637,121.313 -17.692,222.408 -20.219,303.283c90.985,-128.895 171.861,-245.154 245.154,-353.831c73.293,-108.677 144.06,-209.771 217.353,-308.338c70.766,-98.567 144.06,-192.079 222.408,-285.592c78.348,-96.04 166.806,-192.079 267.9,-293.174c17.692,-17.692 35.383,-27.801 58.129,-32.856c25.274,-7.582 42.965,-7.582 58.129,0c15.164,5.055 25.274,15.164 27.801,30.328c2.527,17.692 -10.109,37.91 -35.383,65.711c-78.348,80.876 -156.696,169.333 -240.099,265.373c-83.403,96.04 -166.806,194.607 -245.154,293.174c-78.348,98.567 -154.169,194.607 -227.463,290.647c-70.766,93.512 -133.95,179.443 -187.025,255.263c-53.075,75.821 -96.04,139.005 -126.368,192.079c-32.856,53.075 -48.02,83.403 -48.02,96.04c0,75.821 -2.527,136.478 -5.055,184.497c-2.527,45.493 -2.527,80.876 -2.527,108.677c-2.527,27.801 -2.527,45.493 0,58.129c0,12.637 5.055,20.219 12.637,27.801c55.602,55.602 103.622,103.622 144.06,141.532c40.438,37.91 78.348,73.293 111.204,103.622c32.856,30.328 65.711,58.129 98.567,85.93c30.328,27.801 63.184,55.602 101.094,83.403c35.383,27.801 75.821,60.657 123.841,98.567c45.493,37.91 101.094,80.876 166.806,131.423c10.109,7.582 15.164,15.164 15.164,27.801c0,12.637 -2.527,22.746 -7.582,32.856c-7.582,10.109 -15.164,17.692 -25.274,22.746c-10.109,5.055 -20.219,5.055 -30.328,-2.527c-15.164,-10.109 -37.91,-25.274 -65.711,-45.493c-30.328,-22.746 -65.711,-48.02 -103.622,-78.348c-37.91,-27.801 -80.876,-60.657 -123.841,-98.567c-42.965,-37.91 -85.93,-75.821 -128.895,-118.786c-75.821,-73.293 -133.95,-133.95 -171.861,-176.915c-40.438,-42.965 -68.239,-70.766 -88.458,-80.876c-17.692,-7.582 -25.274,0 -27.801,27.801c-2.527,27.801 -2.527,73.293 -2.527,141.532Zm-113.731,-561.074c-7.582,5.055 -15.164,12.637 -22.746,22.746c-7.582,10.109 -15.164,20.219 -20.219,27.801c-5.055,7.582 -7.582,17.692 -5.055,30.328c2.527,12.637 5.055,25.274 10.109,37.91c5.055,12.637 10.109,22.746 17.692,30.328c7.582,7.582 12.637,12.637 17.692,12.637l2.527,-161.751Z" style="fill:#fff;fill-rule:nonzero;"/><path d="M2075.827,355.842c-50.547,0 -113.731,48.02 -187.025,146.587c-73.293,98.567 -149.114,240.099 -222.408,424.597c-73.293,181.97 -141.532,409.433 -202.189,677.333c-63.184,267.9 -106.149,571.184 -128.895,909.85c-5.055,27.801 -12.637,50.547 -22.746,65.711c-10.109,15.164 -20.219,25.274 -32.856,30.328c-12.637,5.055 -22.746,7.582 -35.383,2.527c-15.164,0 -25.274,-5.055 -37.91,-7.582c-20.219,-7.582 -37.91,-35.383 -48.02,-85.93c-15.164,-48.02 -22.746,-113.731 -30.328,-192.079c-7.582,-78.348 -10.109,-169.333 -12.637,-270.428c-2.527,-101.094 -2.527,-207.244 0,-318.448c0,-108.677 2.527,-219.88 5.055,-333.612c2.527,-113.731 2.527,-219.88 5.055,-320.975c2.527,-101.094 2.527,-194.607 5.055,-278.01c0,-83.403 -2.527,-151.642 -5.055,-204.716c-85.93,98.567 -156.696,222.408 -214.826,368.995c-55.602,146.587 -101.094,303.283 -139.005,467.562c-37.91,166.806 -65.711,336.139 -83.403,505.472c-20.219,171.861 -35.383,331.084 -45.493,475.144c-10.109,146.587 -17.692,272.955 -20.219,381.632c-2.527,108.677 -7.582,181.97 -12.637,222.408c-2.527,10.109 -10.109,15.164 -25.274,15.164c-17.692,0 -30.328,2.527 -37.91,5.055c-32.856,12.637 -58.129,0 -80.876,-37.91c-25.274,-40.438 -42.965,-101.094 -58.129,-179.443c-17.692,-78.348 -30.328,-174.388 -37.91,-285.592c-7.582,-113.731 -15.164,-235.045 -17.692,-366.467c-2.527,-128.895 -2.527,-265.373 0,-406.905c0,-139.005 5.055,-278.01 10.109,-417.015c2.527,-139.005 10.109,-270.428 17.692,-396.796c7.582,-126.368 17.692,-240.099 25.274,-341.194c7.582,-103.622 17.692,-189.552 27.801,-260.318c7.582,-68.239 17.692,-116.259 25.274,-139.005c2.527,-10.109 12.637,-15.164 30.328,-17.692c17.692,-2.527 35.383,0 53.075,2.527c17.692,2.527 35.383,7.582 48.02,15.164c15.164,7.582 20.219,15.164 17.692,25.274c-22.746,133.95 -42.965,285.592 -60.657,454.925c-17.692,169.333 -30.328,343.721 -42.965,518.109c-12.637,174.388 -20.219,346.249 -25.274,513.054c-5.055,169.333 -7.582,318.448 -5.055,447.343c2.527,131.423 10.109,237.572 20.219,318.448c10.109,78.348 25.274,118.786 42.965,118.786c12.637,-184.497 27.801,-368.995 45.493,-548.437c15.164,-179.443 40.438,-353.831 73.293,-525.691c32.856,-174.388 80.876,-341.194 141.532,-508c58.129,-164.278 139.005,-323.502 240.099,-480.199c20.219,-32.856 42.965,-53.075 68.239,-63.184c22.746,-10.109 45.493,-12.637 65.711,-10.109c20.219,5.055 37.91,15.164 50.547,25.274c15.164,12.637 22.746,27.801 25.274,42.965c15.164,136.478 22.746,278.01 25.274,427.124c2.527,146.587 0,288.119 -2.527,424.597c-2.527,136.478 -7.582,260.318 -12.637,374.049c-5.055,113.731 -7.582,202.189 -5.055,270.428c2.527,-2.527 10.109,-27.801 22.746,-78.348c10.109,-50.547 25.274,-116.259 42.965,-197.134c17.692,-80.876 40.438,-171.861 65.711,-272.955c27.801,-103.622 58.129,-207.244 93.512,-315.92c32.856,-108.677 70.766,-214.826 111.204,-318.448c42.965,-103.622 88.458,-197.134 139.005,-280.537c48.02,-83.403 101.094,-151.642 159.224,-204.716c58.129,-53.075 118.786,-83.403 181.97,-90.985c30.328,-2.527 58.129,5.055 83.403,22.746c22.746,17.692 37.91,42.965 40.438,73.293c5.055,78.348 7.582,174.388 7.582,288.119c-2.527,116.259 -5.055,242.627 -7.582,381.632c-5.055,139.005 -12.637,283.064 -17.692,434.706c-7.582,154.169 -15.164,305.811 -20.219,454.925c-7.582,151.642 -12.637,298.229 -17.692,437.234c-5.055,141.532 -7.582,270.428 -5.055,386.686c0,113.731 2.527,212.298 10.109,293.174c7.582,80.876 17.692,136.478 32.856,166.806c7.582,12.637 7.582,25.274 0,32.856c-7.582,7.582 -17.692,12.637 -30.328,15.164c-15.164,2.527 -30.328,0 -45.493,-5.055c-17.692,-5.055 -30.328,-15.164 -40.438,-30.328c-20.219,-27.801 -32.856,-93.512 -42.965,-199.662c-5.055,-106.149 -10.109,-237.572 -10.109,-394.268c2.527,-156.696 5.055,-333.612 10.109,-528.219c7.582,-194.607 15.164,-391.741 22.746,-596.457c7.582,-204.716 15.164,-406.905 22.746,-604.039c7.582,-202.189 12.637,-384.159 15.164,-550.965Z" style="fill:#fff;fill-rule:nonzero;"/><path d="M6277.054,319.161c-56.114,0 -126.256,53.308 -207.621,162.73c-81.365,109.422 -165.536,266.541 -246.901,471.357c-81.365,202.01 -157.119,454.523 -224.456,751.926c-70.142,297.404 -117.839,634.087 -143.09,1010.05c-5.611,30.863 -14.028,56.114 -25.251,72.948c-11.223,16.834 -22.446,28.057 -36.474,33.668c-14.028,5.611 -25.251,8.417 -39.28,2.806c-16.834,0 -28.057,-5.611 -42.085,-8.417c-22.446,-8.417 -42.085,-39.28 -53.308,-95.394c-16.834,-53.308 -25.251,-126.256 -33.668,-213.233c-8.417,-86.977 -11.223,-187.982 -14.028,-300.209c-2.806,-112.228 -2.806,-230.067 0,-353.518c0,-120.645 2.806,-244.095 5.611,-370.352c2.806,-126.256 2.806,-244.095 5.611,-356.323c2.806,-112.228 2.806,-216.038 5.611,-308.626c0,-92.588 -2.806,-168.342 -5.611,-227.261c-95.394,109.422 -173.953,246.901 -238.484,409.631c-61.725,162.73 -112.228,336.683 -154.313,519.054c-42.085,185.176 -72.948,373.157 -92.588,561.139c-22.446,190.787 -39.28,367.546 -50.503,527.471c-11.223,162.73 -19.64,303.015 -22.446,423.66c-2.806,120.645 -8.417,202.01 -14.028,246.901c-2.806,11.223 -11.223,16.834 -28.057,16.834c-19.64,0 -33.668,2.806 -42.085,5.611c-36.474,14.028 -64.531,0 -89.782,-42.085c-28.057,-44.891 -47.697,-112.228 -64.531,-199.204c-19.64,-86.977 -33.668,-193.593 -42.085,-317.043c-8.417,-126.256 -16.834,-260.93 -19.64,-406.826c-2.806,-143.09 -2.806,-294.598 0,-451.717c0,-154.313 5.611,-308.626 11.223,-462.94c2.806,-154.313 11.223,-300.209 19.64,-440.494c8.417,-140.285 19.64,-266.541 28.057,-378.769c8.417,-115.033 19.64,-210.427 30.863,-288.987c8.417,-75.754 19.64,-129.062 28.057,-154.313c2.806,-11.223 14.028,-16.834 33.668,-19.64c19.64,-2.806 39.28,0 58.92,2.806c19.64,2.806 39.28,8.417 53.308,16.834c16.834,8.417 22.446,16.834 19.64,28.057c-25.251,148.702 -47.697,317.043 -67.337,505.025c-19.64,187.982 -33.668,381.574 -47.697,575.167c-14.028,193.593 -22.446,384.38 -28.057,569.556c-5.611,187.982 -8.417,353.518 -5.611,496.608c2.806,145.896 11.223,263.735 22.446,353.518c11.223,86.977 28.057,131.868 47.697,131.868c14.028,-204.816 30.863,-409.631 50.503,-608.836c16.834,-199.204 44.891,-392.797 81.365,-583.584c36.474,-193.593 89.782,-378.769 157.119,-563.945c64.531,-182.37 154.313,-359.129 266.541,-533.082c22.446,-36.474 47.697,-58.92 75.754,-70.142c25.251,-11.223 50.503,-14.028 72.948,-11.223c22.446,5.611 42.085,16.834 56.114,28.057c16.834,14.028 25.251,30.863 28.057,47.697c16.834,151.508 25.251,308.626 28.057,474.162c2.806,162.73 0,319.849 -2.806,471.357c-2.806,151.508 -8.417,288.987 -14.028,415.243c-5.611,126.256 -8.417,224.456 -5.611,300.209c2.806,-2.806 11.223,-30.863 25.251,-86.977c11.223,-56.114 28.057,-129.062 47.697,-218.844c19.64,-89.782 44.891,-190.787 72.948,-303.015c30.863,-115.033 64.531,-230.067 103.811,-350.712c36.474,-120.645 78.559,-238.484 123.451,-353.518c47.697,-115.033 98.199,-218.844 154.313,-311.432c53.308,-92.588 112.228,-168.342 176.759,-227.261c64.531,-58.92 131.868,-92.588 202.01,-101.005c33.668,-2.806 64.531,5.611 92.588,25.251c25.251,19.64 42.085,47.697 44.891,81.365c5.611,86.977 8.417,193.593 8.417,319.849c-2.806,129.062 -5.611,269.347 -8.417,423.66c-5.611,154.313 -14.028,314.238 -19.64,482.579c-8.417,171.147 -16.834,339.489 -22.446,505.025c-8.417,168.342 -14.028,331.072 -19.64,485.385c-5.611,157.119 -8.417,300.209 -5.611,429.271c0,126.256 2.806,235.678 11.223,325.461c8.417,89.782 19.64,151.508 36.474,185.176c8.417,14.028 8.417,28.057 0,36.474c-8.417,8.417 -19.64,14.028 -33.668,16.834c-16.834,2.806 -33.668,0 -50.503,-5.611c-19.64,-5.611 -33.668,-16.834 -44.891,-33.668c-22.446,-30.863 -36.474,-103.811 -47.697,-221.65c-5.611,-117.839 -11.223,-263.735 -11.223,-437.688c2.806,-173.953 5.611,-370.352 11.223,-586.39c8.417,-216.038 16.834,-434.883 25.251,-662.144c8.417,-227.261 16.834,-451.717 25.251,-670.561c8.417,-224.456 14.028,-426.466 16.834,-611.641Z" style="fill-rule:nonzero;"/><path d="M7548.033,1954.88c-2.806,11.223 -11.223,39.28 -25.251,81.365c-16.834,44.891 -33.668,98.199 -53.308,159.925c-19.64,61.725 -42.085,126.256 -64.531,196.399c-25.251,70.142 -47.697,134.673 -70.142,193.593c-19.64,58.92 -39.28,112.228 -56.114,154.313c-16.834,42.085 -28.057,67.337 -33.668,75.754c-16.834,22.446 -36.474,36.474 -58.92,44.891c-22.446,8.417 -44.891,8.417 -64.531,5.611c-19.64,-5.611 -39.28,-16.834 -58.92,-30.863c-19.64,-14.028 -33.668,-33.668 -44.891,-53.308c-25.251,-42.085 -47.697,-92.588 -61.725,-148.702c-16.834,-56.114 -25.251,-123.451 -28.057,-202.01c0,-14.028 -2.806,-19.64 -5.611,-16.834c-2.806,2.806 -8.417,8.417 -11.223,16.834c-58.92,159.925 -126.256,249.707 -207.621,269.347c-47.697,11.223 -86.977,5.611 -115.033,-19.64c-28.057,-22.446 -47.697,-56.114 -61.725,-103.811c-11.223,-47.697 -16.834,-101.005 -11.223,-165.536c0,-61.725 11.223,-126.256 25.251,-190.787c14.028,-64.531 36.474,-129.062 61.725,-190.787c25.251,-61.725 56.114,-115.033 89.782,-159.925c33.668,-44.891 70.142,-78.559 112.228,-98.199c42.085,-22.446 84.171,-25.251 126.256,-11.223c14.028,5.611 25.251,14.028 30.863,22.446c5.611,8.417 11.223,19.64 14.028,28.057c2.806,8.417 8.417,16.834 16.834,22.446c8.417,8.417 19.64,11.223 39.28,11.223c11.223,8.417 19.64,33.668 22.446,75.754c2.806,42.085 5.611,95.394 8.417,157.119c2.806,61.725 2.806,129.062 2.806,202.01c2.806,70.142 5.611,140.285 11.223,204.816c5.611,64.531 14.028,123.451 28.057,171.147c11.223,47.697 28.057,81.365 53.308,98.199c2.806,2.806 11.223,-16.834 25.251,-56.114c14.028,-39.28 33.668,-89.782 53.308,-151.508c22.446,-58.92 44.891,-123.451 70.142,-196.399c25.251,-67.337 47.697,-134.673 70.142,-196.399c19.64,-61.725 39.28,-115.033 53.308,-157.119c14.028,-39.28 19.64,-61.725 19.64,-64.531c2.806,-14.028 11.223,-22.446 22.446,-28.057c11.223,-2.806 22.446,-5.611 33.668,-2.806c14.028,2.806 25.251,11.223 33.668,19.64c8.417,8.417 11.223,19.64 8.417,33.668Zm-852.931,656.533c14.028,0 36.474,-19.64 61.725,-61.725c22.446,-39.28 47.697,-89.782 72.948,-151.508c25.251,-58.92 47.697,-126.256 67.337,-196.399c19.64,-72.948 33.668,-140.285 39.28,-202.01c11.223,-98.199 -8.417,-145.896 -61.725,-145.896c-25.251,0 -50.503,19.64 -75.754,56.114c-28.057,36.474 -53.308,84.171 -75.754,137.479c-25.251,56.114 -44.891,117.839 -61.725,182.37c-16.834,64.531 -28.057,126.256 -33.668,182.37c-2.806,56.114 0,103.811 8.417,140.285c8.417,39.28 28.057,58.92 58.92,58.92Z" style="fill-rule:nonzero;"/><path d="M7918.385,2762.921c0,2.806 0,5.611 2.806,14.028c2.806,8.417 2.806,16.834 2.806,25.251c-2.806,8.417 -5.611,16.834 -8.417,28.057c-2.806,5.611 -11.223,11.223 -22.446,14.028c-14.028,2.806 -30.863,2.806 -44.891,-2.806c-14.028,-8.417 -25.251,-19.64 -30.863,-33.668c-25.251,-67.337 -53.308,-140.285 -84.171,-216.038c-30.863,-72.948 -61.725,-145.896 -92.588,-210.427c-2.806,-8.417 -5.611,-11.223 -5.611,-8.417c-2.806,2.806 -2.806,8.417 -5.611,11.223c-14.028,42.085 -30.863,84.171 -47.697,123.451c-16.834,42.085 -28.057,86.977 -30.863,134.673c0,16.834 -5.611,30.863 -11.223,44.891c-11.223,11.223 -19.64,19.64 -30.863,22.446c-11.223,5.611 -22.446,5.611 -33.668,0c-14.028,-2.806 -25.251,-14.028 -36.474,-30.863c-8.417,-14.028 -14.028,-28.057 -14.028,-42.085c2.806,-14.028 5.611,-30.863 11.223,-44.891c5.611,-16.834 11.223,-33.668 19.64,-47.697c8.417,-14.028 14.028,-30.863 19.64,-44.891c19.64,-53.308 36.474,-98.199 53.308,-129.062c11.223,-30.863 22.446,-58.92 30.863,-78.559c8.417,-19.64 11.223,-39.28 11.223,-53.308c2.806,-14.028 0,-33.668 -8.417,-53.308c-11.223,-22.446 -22.446,-50.503 -39.28,-81.365c-19.64,-33.668 -42.085,-78.559 -70.142,-137.479c-19.64,-36.474 -25.251,-67.337 -22.446,-86.977c2.806,-19.64 8.417,-36.474 22.446,-47.697c11.223,-8.417 25.251,-14.028 39.28,-16.834c14.028,-2.806 22.446,-2.806 25.251,-2.806c8.417,2.806 19.64,16.834 28.057,39.28c8.417,25.251 19.64,50.503 30.863,84.171c11.223,30.863 22.446,61.725 33.668,89.782c11.223,30.863 25.251,56.114 39.28,70.142c5.611,-19.64 16.834,-39.28 33.668,-61.725c14.028,-22.446 30.863,-44.891 50.503,-67.337c16.834,-25.251 33.668,-47.697 50.503,-70.142c16.834,-22.446 30.863,-44.891 39.28,-64.531c16.834,-28.057 36.474,-42.085 56.114,-42.085c22.446,-2.806 42.085,2.806 56.114,14.028c14.028,11.223 22.446,25.251 22.446,42.085c2.806,16.834 -8.417,30.863 -33.668,42.085c-11.223,5.611 -25.251,16.834 -39.28,36.474c-16.834,19.64 -33.668,39.28 -47.697,61.725c-16.834,22.446 -30.863,44.891 -44.891,64.531c-14.028,22.446 -22.446,36.474 -28.057,44.891c-14.028,25.251 -28.057,47.697 -36.474,61.725c-8.417,16.834 -14.028,33.668 -16.834,50.503c-2.806,16.834 0,36.474 8.417,58.92c8.417,25.251 19.64,56.114 36.474,98.199c14.028,39.28 36.474,89.782 64.531,154.313c25.251,67.337 58.92,145.896 98.199,244.095Z" style="fill-rule:nonzero;"/><path d="M8050.253,2010.994c2.806,-33.668 8.417,-56.114 22.446,-67.337c14.028,-11.223 28.057,-14.028 42.085,-11.223c14.028,2.806 25.251,11.223 36.474,25.251c11.223,14.028 16.834,30.863 16.834,47.697c-2.806,19.64 -2.806,53.308 -2.806,103.811c-2.806,44.891 -2.806,98.199 0,154.313c2.806,58.92 5.611,115.033 11.223,171.147c2.806,56.114 11.223,101.005 22.446,137.479c8.417,36.474 22.446,58.92 39.28,67.337c19.64,8.417 42.085,-8.417 67.337,-50.503c16.834,-25.251 36.474,-67.337 61.725,-126.256c25.251,-56.114 47.697,-115.033 72.948,-176.759c22.446,-64.531 44.891,-123.451 67.337,-182.37c19.64,-58.92 36.474,-101.005 50.503,-131.868c14.028,-25.251 28.057,-42.085 42.085,-47.697c14.028,-8.417 28.057,-8.417 36.474,-2.806c8.417,5.611 14.028,16.834 14.028,33.668c2.806,16.834 -2.806,36.474 -16.834,56.114c-22.446,53.308 -47.697,120.645 -75.754,199.204c-28.057,78.559 -58.92,157.119 -89.782,230.067c-30.863,78.559 -61.725,143.09 -95.394,202.01c-33.668,56.114 -67.337,89.782 -103.811,98.199c-8.417,2.806 -22.446,2.806 -42.085,5.611c-19.64,5.611 -39.28,0 -58.92,-8.417c-19.64,-8.417 -42.085,-28.057 -61.725,-56.114c-22.446,-25.251 -39.28,-67.337 -53.308,-120.645c-14.028,-53.308 -19.64,-126.256 -22.446,-216.038c-2.806,-86.977 5.611,-199.204 19.64,-333.878Zm154.313,-227.261c-11.223,16.834 -25.251,28.057 -39.28,36.474c-16.834,8.417 -33.668,11.223 -47.697,11.223c-14.028,0 -22.446,-5.611 -30.863,-14.028c-8.417,-5.611 -8.417,-16.834 -2.806,-30.863c2.806,-5.611 8.417,-14.028 11.223,-25.251c8.417,-14.028 22.446,-22.446 42.085,-30.863c16.834,-5.611 33.668,-2.806 47.697,5.611c16.834,11.223 22.446,28.057 19.64,47.697Z" style="fill-rule:nonzero;"/><path d="M8967.715,2656.304c0,39.28 2.806,95.394 5.611,168.342c0,75.754 5.611,151.508 11.223,232.873c8.417,81.365 16.834,157.119 30.863,232.873c14.028,75.754 30.863,137.479 53.308,179.564c2.806,5.611 8.417,11.223 14.028,19.64c8.417,8.417 2.806,22.446 -14.028,42.085c-2.806,2.806 -8.417,5.611 -19.64,8.417c-14.028,2.806 -28.057,2.806 -42.085,0c-14.028,-2.806 -30.863,-11.223 -42.085,-22.446c-14.028,-11.223 -25.251,-30.863 -30.863,-58.92c-8.417,-33.668 -14.028,-84.171 -22.446,-151.508c-8.417,-67.337 -14.028,-134.673 -19.64,-202.01c-8.417,-70.142 -14.028,-129.062 -16.834,-182.37c-2.806,-50.503 -5.611,-75.754 -5.611,-78.559c-8.417,-109.422 -11.223,-196.399 -14.028,-260.93c-2.806,-64.531 -2.806,-117.839 -5.611,-154.313c-2.806,-36.474 -5.611,-64.531 -8.417,-84.171c-5.611,-16.834 -14.028,-30.863 -28.057,-44.891c-14.028,-14.028 -30.863,-28.057 -53.308,-42.085c-22.446,-14.028 -53.308,-39.28 -92.588,-72.948c-28.057,-25.251 -30.863,-53.308 -8.417,-84.171c42.085,-53.308 72.948,-95.394 98.199,-126.256c25.251,-30.863 42.085,-53.308 56.114,-72.948c11.223,-19.64 19.64,-33.668 25.251,-47.697c2.806,-11.223 5.611,-25.251 5.611,-44.891c8.417,-210.427 19.64,-412.437 36.474,-606.03c16.834,-190.787 33.668,-361.935 53.308,-513.442c16.834,-151.508 30.863,-277.764 44.891,-381.574c14.028,-101.005 22.446,-168.342 22.446,-202.01c2.806,-30.863 11.223,-50.503 28.057,-64.531c16.834,-11.223 36.474,-16.834 53.308,-14.028c22.446,2.806 39.28,11.223 53.308,28.057c14.028,16.834 19.64,39.28 16.834,70.142c-14.028,101.005 -28.057,221.65 -44.891,359.129c-19.64,140.285 -36.474,283.375 -50.503,429.271c-16.834,143.09 -30.863,283.375 -42.085,418.049c-14.028,134.673 -19.64,246.901 -22.446,336.683c101.005,-143.09 190.787,-272.152 272.152,-392.797c81.365,-120.645 159.925,-232.873 241.29,-342.295c78.559,-109.422 159.925,-213.233 246.901,-317.043c86.977,-106.616 185.176,-213.233 297.404,-325.461c19.64,-19.64 39.28,-30.863 64.531,-36.474c28.057,-8.417 47.697,-8.417 64.531,0c16.834,5.611 28.057,16.834 30.863,33.668c2.806,19.64 -11.223,42.085 -39.28,72.948c-86.977,89.782 -173.953,187.982 -266.541,294.598c-92.588,106.616 -185.176,216.038 -272.152,325.461c-86.977,109.422 -171.147,216.038 -252.513,322.655c-78.559,103.811 -148.702,199.204 -207.621,283.375c-58.92,84.171 -106.616,154.313 -140.285,213.233c-36.474,58.92 -53.308,92.588 -53.308,106.616c0,84.171 -2.806,151.508 -5.611,204.816c-2.806,50.503 -2.806,89.782 -2.806,120.645c-2.806,30.863 -2.806,50.503 0,64.531c0,14.028 5.611,22.446 14.028,30.863c61.725,61.725 115.033,115.033 159.925,157.119c44.891,42.085 86.977,81.365 123.451,115.033c36.474,33.668 72.948,64.531 109.422,95.394c33.668,30.863 70.142,61.725 112.228,92.588c39.28,30.863 84.171,67.337 137.479,109.422c50.503,42.085 112.228,89.782 185.176,145.896c11.223,8.417 16.834,16.834 16.834,30.863c0,14.028 -2.806,25.251 -8.417,36.474c-8.417,11.223 -16.834,19.64 -28.057,25.251c-11.223,5.611 -22.446,5.611 -33.668,-2.806c-16.834,-11.223 -42.085,-28.057 -72.948,-50.503c-33.668,-25.251 -72.948,-53.308 -115.033,-86.977c-42.085,-30.863 -89.782,-67.337 -137.479,-109.422c-47.697,-42.085 -95.394,-84.171 -143.09,-131.868c-84.171,-81.365 -148.702,-148.702 -190.787,-196.399c-44.891,-47.697 -75.754,-78.559 -98.199,-89.782c-19.64,-8.417 -28.057,0 -30.863,30.863c-2.806,30.863 -2.806,81.365 -2.806,157.119Zm-126.256,-622.864c-8.417,5.611 -16.834,14.028 -25.251,25.251c-8.417,11.223 -16.834,22.446 -22.446,30.863c-5.611,8.417 -8.417,19.64 -5.611,33.668c2.806,14.028 5.611,28.057 11.223,42.085c5.611,14.028 11.223,25.251 19.64,33.668c8.417,8.417 14.028,14.028 19.64,14.028l2.806,-179.564Z" style="fill-rule:nonzero;"/><path d="M10179.775,1797.762c2.806,-11.223 8.417,-19.64 16.834,-22.446c11.223,-5.611 22.446,-5.611 33.668,-2.806c8.417,2.806 19.64,11.223 28.057,25.251c8.417,14.028 14.028,30.863 16.834,56.114c2.806,30.863 2.806,75.754 0,131.868c-2.806,58.92 -5.611,120.645 -8.417,185.176c-2.806,67.337 -5.611,137.479 -8.417,207.621c-2.806,70.142 -5.611,137.479 -8.417,199.204c-2.806,61.725 0,115.033 2.806,159.925c2.806,44.891 5.611,75.754 14.028,89.782c8.417,14.028 8.417,25.251 2.806,33.668c-2.806,5.611 -8.417,14.028 -14.028,22.446c-14.028,14.028 -28.057,19.64 -39.28,16.834c-14.028,-2.806 -25.251,-11.223 -33.668,-25.251c-8.417,-14.028 -16.834,-33.668 -19.64,-56.114c-5.611,-19.64 -8.417,-42.085 -5.611,-64.531c0,-5.611 2.806,-101.005 5.611,-137.479l0,-112.228c0,-39.28 0,-75.754 2.806,-109.422l0,-115.033c-2.806,8.417 -11.223,28.057 -22.446,64.531c-11.223,36.474 -22.446,72.948 -36.474,115.033c-14.028,44.891 -25.251,81.365 -36.474,120.645c-11.223,33.668 -19.64,58.92 -22.446,67.337c-19.64,56.114 -42.085,98.199 -64.531,126.256c-22.446,30.863 -44.891,47.697 -67.337,56.114c-19.64,8.417 -39.28,5.611 -58.92,-5.611c-19.64,-8.417 -33.668,-25.251 -47.697,-50.503c-19.64,-36.474 -33.668,-89.782 -44.891,-154.313c-5.611,-67.337 -11.223,-134.673 -14.028,-204.816c-2.806,-67.337 -2.806,-129.062 0,-185.176c2.806,-53.308 2.806,-89.782 2.806,-106.616c-2.806,-28.057 0,-58.92 2.806,-89.782c2.806,-30.863 5.611,-58.92 16.834,-81.365c8.417,-25.251 19.64,-47.697 33.668,-64.531c14.028,-16.834 33.668,-25.251 56.114,-25.251c14.028,0 25.251,5.611 30.863,16.834c5.611,14.028 8.417,28.057 5.611,42.085c0,14.028 0,28.057 -5.611,42.085c0,14.028 -2.806,22.446 -5.611,25.251c-14.028,30.863 -22.446,67.337 -28.057,117.839c-5.611,44.891 -8.417,98.199 -11.223,151.508c-2.806,53.308 0,109.422 2.806,162.73c0,56.114 5.611,106.616 11.223,148.702c2.806,44.891 8.417,81.365 14.028,109.422c8.417,30.863 14.028,44.891 22.446,47.697c11.223,2.806 25.251,-14.028 42.085,-56.114c16.834,-42.085 36.474,-98.199 56.114,-162.73c19.64,-64.531 42.085,-134.673 61.725,-210.427c19.64,-78.559 39.28,-154.313 56.114,-224.456c16.834,-70.142 30.863,-129.062 44.891,-182.37c11.223,-50.503 16.834,-81.365 19.64,-92.588Z" style="fill-rule:nonzero;"/><path d="M10536.098,2715.224c-36.474,-36.474 -61.725,-78.559 -78.559,-126.256c-14.028,-47.697 -25.251,-95.394 -30.863,-140.285c-5.611,-47.697 -8.417,-86.977 -8.417,-123.451c0,-33.668 -2.806,-53.308 -8.417,-61.725c-8.417,-8.417 -8.417,-16.834 -5.611,-25.251c5.611,-19.64 11.223,-47.697 19.64,-84.171c5.611,-36.474 14.028,-72.948 22.446,-112.228c11.223,-39.28 22.446,-78.559 39.28,-117.839c11.223,-39.28 30.863,-72.948 53.308,-101.005c25.251,-28.057 53.308,-47.697 86.977,-61.725c36.474,-14.028 75.754,-16.834 123.451,-5.611c36.474,8.417 61.725,33.668 78.559,67.337c16.834,36.474 25.251,78.559 28.057,129.062c2.806,44.891 -2.806,95.394 -16.834,148.702c-14.028,50.503 -33.668,95.394 -61.725,134.673c-25.251,39.28 -58.92,70.142 -98.199,89.782c-39.28,19.64 -84.171,22.446 -131.868,8.417c-5.611,5.611 -8.417,28.057 -8.417,64.531c2.806,36.474 8.417,78.559 19.64,120.645c11.223,42.085 28.057,81.365 50.503,115.033c22.446,36.474 53.308,53.308 92.588,53.308c30.863,0 58.92,-14.028 86.977,-39.28c25.251,-28.057 50.503,-64.531 75.754,-106.616c25.251,-44.891 44.891,-95.394 67.337,-151.508c19.64,-53.308 36.474,-109.422 50.503,-162.73c16.834,-53.308 30.863,-106.616 44.891,-154.313c11.223,-47.697 19.64,-84.171 28.057,-115.033c2.806,-5.611 8.417,-8.417 14.028,-8.417c8.417,-2.806 16.834,0 25.251,2.806c8.417,2.806 14.028,11.223 19.64,19.64c5.611,8.417 8.417,16.834 5.611,30.863c-25.251,154.313 -58.92,291.792 -101.005,406.826c-44.891,117.839 -89.782,210.427 -140.285,272.152c-53.308,64.531 -109.422,101.005 -165.536,109.422c-61.725,11.223 -117.839,-16.834 -176.759,-75.754Zm179.564,-850.125c-8.417,-11.223 -28.057,-14.028 -50.503,-5.611c-28.057,8.417 -50.503,42.085 -75.754,103.811c-14.028,36.474 -28.057,75.754 -39.28,123.451c-8.417,47.697 -14.028,89.782 -11.223,120.645c2.806,19.64 11.223,36.474 33.668,50.503c19.64,14.028 39.28,8.417 61.725,-11.223c28.057,-25.251 50.503,-56.114 67.337,-92.588c16.834,-36.474 28.057,-70.142 36.474,-106.616c8.417,-36.474 8.417,-70.142 5.611,-101.005c-5.611,-33.668 -14.028,-61.725 -28.057,-81.365Z" style="fill-rule:nonzero;"/><path d="M11658.376,2678.75c5.611,-2.806 14.028,-14.028 25.251,-28.057c11.223,-14.028 25.251,-28.057 39.28,-42.085c14.028,-14.028 30.863,-28.057 50.503,-39.28c16.834,-8.417 33.668,-14.028 50.503,-11.223c19.64,2.806 25.251,11.223 16.834,22.446c-11.223,22.446 -22.446,39.28 -30.863,50.503c-11.223,11.223 -22.446,22.446 -33.668,33.668c-11.223,8.417 -25.251,22.446 -39.28,33.668c-14.028,14.028 -33.668,36.474 -58.92,61.725c-14.028,14.028 -19.64,28.057 -19.64,44.891c2.806,92.588 0,193.593 -2.806,297.404c-2.806,103.811 -5.611,210.427 -14.028,314.238c-8.417,103.811 -16.834,207.621 -28.057,308.626c-11.223,98.199 -22.446,190.787 -39.28,272.152c-14.028,81.365 -28.057,154.313 -42.085,213.233c-14.028,58.92 -30.863,98.199 -47.697,123.451c-8.417,14.028 -25.251,22.446 -44.891,25.251c-22.446,2.806 -44.891,0 -67.337,-14.028c-25.251,-11.223 -47.697,-30.863 -67.337,-58.92c-19.64,-25.251 -36.474,-61.725 -47.697,-106.616c-19.64,-75.754 -28.057,-162.73 -28.057,-260.93c0,-98.199 5.611,-196.399 19.64,-297.404c11.223,-98.199 28.057,-196.399 50.503,-288.987c19.64,-95.394 44.891,-179.564 70.142,-249.707c25.251,-67.337 47.697,-120.645 70.142,-159.925c19.64,-36.474 39.28,-67.337 56.114,-92.588c16.834,-25.251 30.863,-47.697 39.28,-64.531c8.417,-16.834 14.028,-39.28 14.028,-64.531c-2.806,-81.365 -2.806,-143.09 0,-179.564c2.806,-36.474 2.806,-58.92 0,-67.337c-2.806,-8.417 -8.417,-2.806 -14.028,14.028c-8.417,16.834 -22.446,39.28 -42.085,67.337c-47.697,64.531 -92.588,106.616 -131.868,126.256c-42.085,19.64 -81.365,19.64 -115.033,8.417c-36.474,-16.834 -67.337,-42.085 -92.588,-84.171c-25.251,-44.891 -47.697,-92.588 -64.531,-145.896c-19.64,-53.308 -30.863,-112.228 -36.474,-173.953c-5.611,-58.92 -5.611,-117.839 0,-171.147c2.806,-36.474 5.611,-72.948 8.417,-109.422c2.806,-36.474 5.611,-67.337 11.223,-101.005c5.611,-30.863 16.834,-56.114 30.863,-78.559c14.028,-19.64 36.474,-36.474 67.337,-44.891c16.834,-5.611 25.251,0 28.057,14.028c2.806,14.028 2.806,30.863 0,50.503c-2.806,19.64 -5.611,36.474 -11.223,53.308c-5.611,16.834 -8.417,25.251 -8.417,22.446c-11.223,42.085 -16.834,101.005 -14.028,173.953c2.806,72.948 8.417,145.896 22.446,216.038c11.223,70.142 28.057,131.868 50.503,185.176c19.64,53.308 44.891,81.365 72.948,84.171c30.863,2.806 61.725,-25.251 98.199,-86.977c36.474,-61.725 72.948,-171.147 115.033,-331.072c19.64,-78.559 30.863,-143.09 33.668,-193.593c2.806,-53.308 5.611,-95.394 8.417,-129.062c2.806,-30.863 11.223,-56.114 22.446,-70.142c11.223,-14.028 36.474,-25.251 72.948,-30.863c11.223,2.806 19.64,22.446 22.446,56.114c2.806,33.668 5.611,78.559 5.611,129.062c-2.806,53.308 -5.611,115.033 -8.417,182.37c-2.806,67.337 -8.417,134.673 -11.223,207.621c-2.806,70.142 -8.417,137.479 -11.223,204.816c-2.806,67.337 -2.806,126.256 0,179.564Zm-266.541,1545.938c2.806,2.806 2.806,8.417 0,14.028c0,5.611 2.806,5.611 11.223,2.806c8.417,-2.806 19.64,-19.64 28.057,-50.503c8.417,-30.863 16.834,-72.948 25.251,-117.839c5.611,-47.697 14.028,-101.005 22.446,-157.119c8.417,-56.114 14.028,-109.422 19.64,-157.119c5.611,-50.503 11.223,-95.394 14.028,-131.868c2.806,-33.668 2.806,-56.114 5.611,-64.531c8.417,-67.337 14.028,-137.479 19.64,-213.233c5.611,-75.754 8.417,-143.09 11.223,-207.621c2.806,-64.531 2.806,-115.033 0,-157.119c0,-42.085 -2.806,-61.725 -5.611,-61.725c-19.64,16.834 -39.28,53.308 -61.725,106.616c-19.64,53.308 -39.28,120.645 -58.92,196.399c-22.446,75.754 -39.28,159.925 -53.308,249.707c-14.028,92.588 -25.251,182.37 -28.057,274.958c-5.611,89.782 -5.611,176.759 2.806,258.124c8.417,84.171 22.446,157.119 47.697,216.038Z" style="fill-rule:nonzero;"/></svg>